<?xml version="1.0" standalone="no"?>
<!DOCTYPE svg PUBLIC "-//W3C//DTD SVG 20010904//EN"
 "http://www.w3.org/TR/2001/REC-SVG-20010904/DTD/svg10.dtd">
<svg version="1.0" xmlns="http://www.w3.org/2000/svg"
 width="297.000000pt" height="279.000000pt" viewBox="0 0 297.000000 279.000000"
 preserveAspectRatio="xMidYMid meet">

<g transform="translate(0.000000,279.000000) scale(0.100000,-0.100000)"
fill="#000000" stroke="none">
<path d="M1380 2554 c228 -15 409 -87 565 -224 66 -58 146 -147 173 -192 15
-26 21 -28 84 -28 37 0 68 4 68 8 0 21 -135 165 -212 226 -94 75 -246 155
-358 187 -59 17 -108 22 -225 24 -82 1 -125 1 -95 -1z"/>
<path d="M1200 2330 c-320 -85 -552 -375 -589 -737 -10 -91 -3 -230 15 -311
11 -51 58 -177 77 -207 11 -16 16 -21 12 -10 -56 160 -58 174 -59 365 -1 204
10 264 75 413 134 305 424 502 714 484 49 -3 101 -8 115 -11 14 -3 5 1 -20 10
-73 26 -249 28 -340 4z"/>
<path d="M1898 1973 c-18 -27 -59 -86 -91 -133 -31 -47 -68 -98 -80 -114 l-24
-29 -98 156 -99 157 -233 0 c-128 0 -233 -3 -233 -7 0 -3 6 -14 14 -22 13 -16
406 -575 420 -599 8 -13 -65 -125 -275 -427 -38 -55 -109 -157 -157 -228 -48
-70 -93 -136 -101 -147 -13 -20 -11 -20 213 -20 l226 0 53 82 c59 90 168 259
226 350 20 31 39 57 42 58 4 0 66 -86 140 -190 l133 -190 189 0 189 0 -14 22
c-8 13 -81 129 -162 258 -81 129 -174 277 -207 328 -32 51 -59 95 -59 98 0 3
41 69 91 147 51 78 112 174 137 212 25 39 73 113 107 165 33 52 65 101 69 108
6 9 -34 12 -187 12 l-195 0 -34 -47z"/>
<path d="M413 1350 c0 -30 2 -43 4 -27 2 15 2 39 0 55 -2 15 -4 2 -4 -28z"/>
<path d="M421 1250 c-1 -52 27 -186 59 -280 61 -181 145 -316 284 -456 179
-179 359 -269 592 -295 284 -31 569 72 782 283 l63 63 -118 3 c-106 2 -120 1
-143 -18 -217 -178 -482 -248 -738 -195 -377 77 -695 435 -767 863 -11 66 -13
71 -14 32z"/>
</g>
</svg>
